<?xml version="1.0" standalone="no"?><!DOCTYPE svg PUBLIC "-//W3C//DTD SVG 1.1//EN" "http://www.w3.org/Graphics/SVG/1.1/DTD/svg11.dtd"><svg t="1719221733925" class="icon" viewBox="0 0 1024 1024" version="1.1" xmlns="http://www.w3.org/2000/svg" p-id="6732" xmlns:xlink="http://www.w3.org/1999/xlink" width="100" height="100"><path d="M800 643.5H222.7c-66.8 0-120.9 54.1-120.9 120.8 0 66.7 54.1 120.9 120.9 120.9h577.4c66.7 0 120.9-54.1 120.9-120.9-0.1-66.7-54.2-120.8-121-120.8z m-5.3 178.1c-31 0-56.1-25.2-56.1-56.2 0-31 25.2-56.1 56.1-56.1 31 0 56.1 25.2 56.1 56.1-0.1 31-25.2 56.2-56.1 56.2zM892 365.4c-11.6-35.6-44.9-59.7-82.3-59.7h-32.2V186.3c0-26.2-21.3-47.6-47.6-47.6-26.2 0-47.6 21.3-47.6 47.6v119.4h-98V186.3c0-26.2-21.3-47.6-47.6-47.6s-47.6 21.3-47.6 47.6v119.4H238.9c-35.5 0-67.4 21.7-80.5 54.7L124 624.2c28.7-20.3 62.9-31.3 98.7-31.3H800c38.3 0 74.6 12.4 104.5 35.5l-12.5-263z m0 0" p-id="6733" fill="#0871DC"></path><path d="M606.3 504.2h8.4v8.4h-8.4z" fill="#0871DC" p-id="6734"></path></svg>